<svg width="59" height="59" viewBox="0 0 59 59" fill="none" xmlns="http://www.w3.org/2000/svg">
<path d="M29.5 0C21.4858 0 20.4853 0.036875 17.3386 0.177C14.1969 0.3245 12.0581 0.818625 10.1775 1.54875C8.23787 2.301 6.59079 3.31137 4.95108 4.95108C3.31137 6.59079 2.29854 8.23542 1.54875 10.1775C0.818625 12.0581 0.322042 14.1969 0.177 17.3386C0.0295 20.4853 0 21.4858 0 29.5C0 37.5142 0.036875 38.5147 0.177 41.6614C0.3245 44.8007 0.818625 46.9419 1.54875 48.8225C2.301 50.7597 3.31137 52.4092 4.95108 54.0489C6.59079 55.6862 8.23542 56.7015 10.1775 57.4513C12.0606 58.1789 14.1993 58.678 17.3386 58.823C20.4853 58.9705 21.4858 59 29.5 59C37.5142 59 38.5147 58.9631 41.6614 58.823C44.8007 58.6755 46.9419 58.1789 48.8225 57.4513C50.7597 56.699 52.4092 55.6862 54.0489 54.0489C55.6862 52.4092 56.7015 50.767 57.4513 48.8225C58.1789 46.9419 58.678 44.8007 58.823 41.6614C58.9705 38.5147 59 37.5142 59 29.5C59 21.4858 58.9631 20.4853 58.823 17.3386C58.6755 14.1993 58.1789 12.0557 57.4513 10.1775C56.699 8.23787 55.6862 6.59079 54.0489 4.95108C52.4092 3.31137 50.767 2.29854 48.8225 1.54875C46.9419 0.818625 44.8007 0.322042 41.6614 0.177C38.5147 0.0295 37.5142 0 29.5 0ZM29.5 5.31C37.374 5.31 38.3131 5.34933 41.4229 5.48454C44.2992 5.61975 45.8602 6.09667 46.8976 6.50475C48.2792 7.03821 49.2576 7.67737 50.295 8.70742C51.3251 9.73992 51.9642 10.7208 52.4977 12.1024C52.9009 13.1398 53.3827 14.7008 53.513 17.5771C53.6531 20.6893 53.6851 21.6235 53.6851 29.5C53.6851 37.3765 53.6482 38.3131 53.5032 41.4229C53.3532 44.2992 52.8738 45.8602 52.4682 46.8976C51.9175 48.2792 51.2907 49.2576 50.2582 50.295C49.2281 51.3251 48.2325 51.9642 46.8657 52.4977C45.8332 52.9009 44.2475 53.3827 41.3713 53.513C38.2394 53.6531 37.3175 53.6851 29.4263 53.6851C21.5325 53.6851 20.6107 53.6482 17.4812 53.5032C14.6025 53.3532 13.0169 52.8738 11.9844 52.4682C10.5856 51.9175 9.62437 51.2907 8.59433 50.2582C7.55937 49.2281 6.89808 48.2325 6.38183 46.8657C5.97621 45.8332 5.49929 44.2475 5.34933 41.3713C5.23871 38.2738 5.19937 37.3175 5.19937 29.4631C5.19937 21.6063 5.23871 20.6475 5.34933 17.5132C5.49929 14.6369 5.97621 13.0537 6.38183 12.0212C6.89808 10.62 7.55937 9.66125 8.59433 8.62629C9.62437 7.59625 10.5856 6.9325 11.9844 6.41871C13.0169 6.01062 14.5681 5.53125 17.4443 5.38375C20.5787 5.27313 21.5006 5.23625 29.3894 5.23625L29.5 5.31ZM29.5 14.3517C21.1294 14.3517 14.3517 21.1367 14.3517 29.5C14.3517 37.8706 21.1367 44.6483 29.5 44.6483C37.8706 44.6483 44.6483 37.8632 44.6483 29.5C44.6483 21.1294 37.8632 14.3517 29.5 14.3517ZM29.5 39.3333C24.0671 39.3333 19.6667 34.9329 19.6667 29.5C19.6667 24.0671 24.0671 19.6667 29.5 19.6667C34.9329 19.6667 39.3333 24.0671 39.3333 29.5C39.3333 34.9329 34.9329 39.3333 29.5 39.3333ZM48.7881 13.7544C48.7881 15.7087 47.2 17.2944 45.2481 17.2944C43.2937 17.2944 41.7081 15.7063 41.7081 13.7544C41.7081 11.8025 43.2962 10.2168 45.2481 10.2168C47.1975 10.2144 48.7881 11.8025 48.7881 13.7544Z" fill="#B378FF"/>
</svg>
